<mxfile host="Electron" agent="Mozilla/5.0 (Windows NT 10.0; Win64; x64) AppleWebKit/537.36 (KHTML, like Gecko) draw.io/26.0.9 Chrome/128.0.6613.186 Electron/32.2.5 Safari/537.36" version="26.0.9">
  <diagram id="qCtZGzd2-76-37-gvuC9" name="uid2-snowflake-integration-architecture">
    <mxGraphModel dx="1171" dy="479" grid="1" gridSize="10" guides="1" tooltips="1" connect="1" arrows="1" fold="1" page="1" pageScale="1" pageWidth="850" pageHeight="1100" math="0" shadow="0">
      <root>
        <mxCell id="0" />
        <mxCell id="1" parent="0" />
        <mxCell id="wwrZ0yD_1gh1AcJBncDE-166" value="" style="rounded=1;whiteSpace=wrap;html=1;fillColor=#e1d5e7;strokeColor=#9673a6;shadow=1;" parent="1" vertex="1">
          <mxGeometry x="850" y="75" width="330" height="260" as="geometry" />
        </mxCell>
        <mxCell id="wwrZ0yD_1gh1AcJBncDE-36" value="" style="rounded=1;whiteSpace=wrap;html=1;fillColor=#dae8fc;strokeColor=#6c8ebf;shadow=1;" parent="1" vertex="1">
          <mxGeometry x="470" y="150" width="330" height="200" as="geometry" />
        </mxCell>
        <mxCell id="wwrZ0yD_1gh1AcJBncDE-1" value="&lt;br&gt;ETL-ed data" style="strokeWidth=1;html=1;shape=mxgraph.flowchart.database;whiteSpace=wrap;" parent="1" vertex="1">
          <mxGeometry x="892.5" y="115" width="60" height="80" as="geometry" />
        </mxCell>
        <mxCell id="wwrZ0yD_1gh1AcJBncDE-16" value="" style="rounded=1;whiteSpace=wrap;html=1;fillColor=#d5e8d4;strokeColor=#82b366;shadow=1;" parent="1" vertex="1">
          <mxGeometry x="50" y="150" width="330" height="200" as="geometry" />
        </mxCell>
        <mxCell id="wwrZ0yD_1gh1AcJBncDE-2" value="" style="shape=table;html=1;whiteSpace=wrap;startSize=0;container=1;collapsible=0;childLayout=tableLayout;rounded=1;" parent="1" vertex="1">
          <mxGeometry x="67" y="190" width="160" height="60" as="geometry" />
        </mxCell>
        <mxCell id="wwrZ0yD_1gh1AcJBncDE-3" value="" style="shape=partialRectangle;html=1;whiteSpace=wrap;collapsible=0;dropTarget=0;pointerEvents=0;fillColor=none;top=0;left=0;bottom=0;right=0;points=[[0,0.5],[1,0.5]];portConstraint=eastwest;" parent="wwrZ0yD_1gh1AcJBncDE-2" vertex="1">
          <mxGeometry width="160" height="20" as="geometry" />
        </mxCell>
        <mxCell id="wwrZ0yD_1gh1AcJBncDE-4" value="Data" style="shape=partialRectangle;html=1;whiteSpace=wrap;connectable=0;fillColor=none;top=0;left=0;bottom=0;right=0;overflow=hidden;" parent="wwrZ0yD_1gh1AcJBncDE-3" vertex="1">
          <mxGeometry width="53" height="20" as="geometry" />
        </mxCell>
        <mxCell id="wwrZ0yD_1gh1AcJBncDE-5" value="..." style="shape=partialRectangle;html=1;whiteSpace=wrap;connectable=0;fillColor=none;top=0;left=0;bottom=0;right=0;overflow=hidden;" parent="wwrZ0yD_1gh1AcJBncDE-3" vertex="1">
          <mxGeometry x="53" width="54" height="20" as="geometry" />
        </mxCell>
        <mxCell id="wwrZ0yD_1gh1AcJBncDE-6" value="..." style="shape=partialRectangle;html=1;whiteSpace=wrap;connectable=0;fillColor=none;top=0;left=0;bottom=0;right=0;overflow=hidden;" parent="wwrZ0yD_1gh1AcJBncDE-3" vertex="1">
          <mxGeometry x="107" width="53" height="20" as="geometry" />
        </mxCell>
        <mxCell id="wwrZ0yD_1gh1AcJBncDE-7" value="" style="shape=partialRectangle;html=1;whiteSpace=wrap;collapsible=0;dropTarget=0;pointerEvents=0;fillColor=none;top=0;left=0;bottom=0;right=0;points=[[0,0.5],[1,0.5]];portConstraint=eastwest;" parent="wwrZ0yD_1gh1AcJBncDE-2" vertex="1">
          <mxGeometry y="20" width="160" height="20" as="geometry" />
        </mxCell>
        <mxCell id="wwrZ0yD_1gh1AcJBncDE-8" value="" style="shape=partialRectangle;html=1;whiteSpace=wrap;connectable=0;fillColor=none;top=0;left=0;bottom=0;right=0;overflow=hidden;" parent="wwrZ0yD_1gh1AcJBncDE-7" vertex="1">
          <mxGeometry width="53" height="20" as="geometry" />
        </mxCell>
        <mxCell id="wwrZ0yD_1gh1AcJBncDE-9" value="" style="shape=partialRectangle;html=1;whiteSpace=wrap;connectable=0;fillColor=none;top=0;left=0;bottom=0;right=0;overflow=hidden;" parent="wwrZ0yD_1gh1AcJBncDE-7" vertex="1">
          <mxGeometry x="53" width="54" height="20" as="geometry" />
        </mxCell>
        <mxCell id="wwrZ0yD_1gh1AcJBncDE-10" value="" style="shape=partialRectangle;html=1;whiteSpace=wrap;connectable=0;fillColor=none;top=0;left=0;bottom=0;right=0;overflow=hidden;" parent="wwrZ0yD_1gh1AcJBncDE-7" vertex="1">
          <mxGeometry x="107" width="53" height="20" as="geometry" />
        </mxCell>
        <mxCell id="wwrZ0yD_1gh1AcJBncDE-11" value="" style="shape=partialRectangle;html=1;whiteSpace=wrap;collapsible=0;dropTarget=0;pointerEvents=0;fillColor=none;top=0;left=0;bottom=0;right=0;points=[[0,0.5],[1,0.5]];portConstraint=eastwest;" parent="wwrZ0yD_1gh1AcJBncDE-2" vertex="1">
          <mxGeometry y="40" width="160" height="20" as="geometry" />
        </mxCell>
        <mxCell id="wwrZ0yD_1gh1AcJBncDE-12" value="" style="shape=partialRectangle;html=1;whiteSpace=wrap;connectable=0;fillColor=none;top=0;left=0;bottom=0;right=0;overflow=hidden;" parent="wwrZ0yD_1gh1AcJBncDE-11" vertex="1">
          <mxGeometry width="53" height="20" as="geometry" />
        </mxCell>
        <mxCell id="wwrZ0yD_1gh1AcJBncDE-13" value="" style="shape=partialRectangle;html=1;whiteSpace=wrap;connectable=0;fillColor=none;top=0;left=0;bottom=0;right=0;overflow=hidden;" parent="wwrZ0yD_1gh1AcJBncDE-11" vertex="1">
          <mxGeometry x="53" width="54" height="20" as="geometry" />
        </mxCell>
        <mxCell id="wwrZ0yD_1gh1AcJBncDE-14" value="" style="shape=partialRectangle;html=1;whiteSpace=wrap;connectable=0;fillColor=none;top=0;left=0;bottom=0;right=0;overflow=hidden;" parent="wwrZ0yD_1gh1AcJBncDE-11" vertex="1">
          <mxGeometry x="107" width="53" height="20" as="geometry" />
        </mxCell>
        <mxCell id="wwrZ0yD_1gh1AcJBncDE-17" value="&lt;b&gt;Partner Snowflake Account&lt;/b&gt;" style="text;html=1;strokeColor=none;fillColor=none;align=center;verticalAlign=middle;whiteSpace=wrap;rounded=0;" parent="1" vertex="1">
          <mxGeometry x="130" y="160" width="170" height="20" as="geometry" />
        </mxCell>
        <mxCell id="wwrZ0yD_1gh1AcJBncDE-19" value="" style="shape=table;html=1;whiteSpace=wrap;startSize=0;container=1;collapsible=0;childLayout=tableLayout;rounded=1;" parent="1" vertex="1">
          <mxGeometry x="67" y="270" width="160" height="60" as="geometry" />
        </mxCell>
        <mxCell id="wwrZ0yD_1gh1AcJBncDE-20" value="" style="shape=partialRectangle;html=1;whiteSpace=wrap;collapsible=0;dropTarget=0;pointerEvents=0;fillColor=none;top=0;left=0;bottom=0;right=0;points=[[0,0.5],[1,0.5]];portConstraint=eastwest;" parent="wwrZ0yD_1gh1AcJBncDE-19" vertex="1">
          <mxGeometry width="160" height="20" as="geometry" />
        </mxCell>
        <mxCell id="wwrZ0yD_1gh1AcJBncDE-21" value="Enriched" style="shape=partialRectangle;html=1;whiteSpace=wrap;connectable=0;fillColor=none;top=0;left=0;bottom=0;right=0;overflow=hidden;" parent="wwrZ0yD_1gh1AcJBncDE-20" vertex="1">
          <mxGeometry width="53" height="20" as="geometry" />
        </mxCell>
        <mxCell id="wwrZ0yD_1gh1AcJBncDE-22" value="data" style="shape=partialRectangle;html=1;whiteSpace=wrap;connectable=0;fillColor=none;top=0;left=0;bottom=0;right=0;overflow=hidden;" parent="wwrZ0yD_1gh1AcJBncDE-20" vertex="1">
          <mxGeometry x="53" width="54" height="20" as="geometry" />
        </mxCell>
        <mxCell id="wwrZ0yD_1gh1AcJBncDE-23" value="..." style="shape=partialRectangle;html=1;whiteSpace=wrap;connectable=0;fillColor=none;top=0;left=0;bottom=0;right=0;overflow=hidden;" parent="wwrZ0yD_1gh1AcJBncDE-20" vertex="1">
          <mxGeometry x="107" width="53" height="20" as="geometry" />
        </mxCell>
        <mxCell id="wwrZ0yD_1gh1AcJBncDE-24" value="" style="shape=partialRectangle;html=1;whiteSpace=wrap;collapsible=0;dropTarget=0;pointerEvents=0;fillColor=none;top=0;left=0;bottom=0;right=0;points=[[0,0.5],[1,0.5]];portConstraint=eastwest;" parent="wwrZ0yD_1gh1AcJBncDE-19" vertex="1">
          <mxGeometry y="20" width="160" height="20" as="geometry" />
        </mxCell>
        <mxCell id="wwrZ0yD_1gh1AcJBncDE-25" value="" style="shape=partialRectangle;html=1;whiteSpace=wrap;connectable=0;fillColor=none;top=0;left=0;bottom=0;right=0;overflow=hidden;" parent="wwrZ0yD_1gh1AcJBncDE-24" vertex="1">
          <mxGeometry width="53" height="20" as="geometry" />
        </mxCell>
        <mxCell id="wwrZ0yD_1gh1AcJBncDE-26" value="" style="shape=partialRectangle;html=1;whiteSpace=wrap;connectable=0;fillColor=none;top=0;left=0;bottom=0;right=0;overflow=hidden;" parent="wwrZ0yD_1gh1AcJBncDE-24" vertex="1">
          <mxGeometry x="53" width="54" height="20" as="geometry" />
        </mxCell>
        <mxCell id="wwrZ0yD_1gh1AcJBncDE-27" value="" style="shape=partialRectangle;html=1;whiteSpace=wrap;connectable=0;fillColor=none;top=0;left=0;bottom=0;right=0;overflow=hidden;" parent="wwrZ0yD_1gh1AcJBncDE-24" vertex="1">
          <mxGeometry x="107" width="53" height="20" as="geometry" />
        </mxCell>
        <mxCell id="wwrZ0yD_1gh1AcJBncDE-28" value="" style="shape=partialRectangle;html=1;whiteSpace=wrap;collapsible=0;dropTarget=0;pointerEvents=0;fillColor=none;top=0;left=0;bottom=0;right=0;points=[[0,0.5],[1,0.5]];portConstraint=eastwest;" parent="wwrZ0yD_1gh1AcJBncDE-19" vertex="1">
          <mxGeometry y="40" width="160" height="20" as="geometry" />
        </mxCell>
        <mxCell id="wwrZ0yD_1gh1AcJBncDE-29" value="" style="shape=partialRectangle;html=1;whiteSpace=wrap;connectable=0;fillColor=none;top=0;left=0;bottom=0;right=0;overflow=hidden;" parent="wwrZ0yD_1gh1AcJBncDE-28" vertex="1">
          <mxGeometry width="53" height="20" as="geometry" />
        </mxCell>
        <mxCell id="wwrZ0yD_1gh1AcJBncDE-30" value="" style="shape=partialRectangle;html=1;whiteSpace=wrap;connectable=0;fillColor=none;top=0;left=0;bottom=0;right=0;overflow=hidden;" parent="wwrZ0yD_1gh1AcJBncDE-28" vertex="1">
          <mxGeometry x="53" width="54" height="20" as="geometry" />
        </mxCell>
        <mxCell id="wwrZ0yD_1gh1AcJBncDE-31" value="" style="shape=partialRectangle;html=1;whiteSpace=wrap;connectable=0;fillColor=none;top=0;left=0;bottom=0;right=0;overflow=hidden;" parent="wwrZ0yD_1gh1AcJBncDE-28" vertex="1">
          <mxGeometry x="107" width="53" height="20" as="geometry" />
        </mxCell>
        <mxCell id="wwrZ0yD_1gh1AcJBncDE-35" style="rounded=0;orthogonalLoop=1;jettySize=auto;html=1;entryX=1;entryY=0.5;entryDx=0;entryDy=0;exitX=0.047;exitY=0.7;exitDx=0;exitDy=0;exitPerimeter=0;" parent="1" source="wwrZ0yD_1gh1AcJBncDE-32" target="wwrZ0yD_1gh1AcJBncDE-24" edge="1">
          <mxGeometry relative="1" as="geometry" />
        </mxCell>
        <mxCell id="wwrZ0yD_1gh1AcJBncDE-32" value="Query" style="ellipse;whiteSpace=wrap;html=1;rounded=1;" parent="1" vertex="1">
          <mxGeometry x="272" y="235" width="80" height="50" as="geometry" />
        </mxCell>
        <mxCell id="wwrZ0yD_1gh1AcJBncDE-33" style="rounded=0;orthogonalLoop=1;jettySize=auto;html=1;exitX=1;exitY=0.5;exitDx=0;exitDy=0;entryX=0;entryY=0.364;entryDx=0;entryDy=0;entryPerimeter=0;" parent="1" source="wwrZ0yD_1gh1AcJBncDE-7" target="wwrZ0yD_1gh1AcJBncDE-32" edge="1">
          <mxGeometry relative="1" as="geometry">
            <mxPoint x="250" y="249" as="targetPoint" />
          </mxGeometry>
        </mxCell>
        <mxCell id="wwrZ0yD_1gh1AcJBncDE-37" value="" style="shape=table;html=1;whiteSpace=wrap;startSize=0;container=1;collapsible=0;childLayout=tableLayout;rounded=1;" parent="1" vertex="1">
          <mxGeometry x="545" y="260" width="170" height="80" as="geometry" />
        </mxCell>
        <mxCell id="wwrZ0yD_1gh1AcJBncDE-38" value="" style="shape=partialRectangle;html=1;whiteSpace=wrap;collapsible=0;dropTarget=0;pointerEvents=0;fillColor=none;top=0;left=0;bottom=0;right=0;points=[[0,0.5],[1,0.5]];portConstraint=eastwest;" parent="wwrZ0yD_1gh1AcJBncDE-37" vertex="1">
          <mxGeometry width="170" height="27" as="geometry" />
        </mxCell>
        <mxCell id="wwrZ0yD_1gh1AcJBncDE-39" value="" style="shape=partialRectangle;html=1;whiteSpace=wrap;connectable=0;fillColor=none;top=0;left=0;bottom=0;right=0;overflow=hidden;" parent="wwrZ0yD_1gh1AcJBncDE-38" vertex="1">
          <mxGeometry width="56" height="27" as="geometry" />
        </mxCell>
        <mxCell id="wwrZ0yD_1gh1AcJBncDE-40" value="..." style="shape=partialRectangle;html=1;whiteSpace=wrap;connectable=0;fillColor=none;top=0;left=0;bottom=0;right=0;overflow=hidden;" parent="wwrZ0yD_1gh1AcJBncDE-38" vertex="1">
          <mxGeometry x="56" width="58" height="27" as="geometry" />
        </mxCell>
        <mxCell id="wwrZ0yD_1gh1AcJBncDE-41" value="..." style="shape=partialRectangle;html=1;whiteSpace=wrap;connectable=0;fillColor=none;top=0;left=0;bottom=0;right=0;overflow=hidden;" parent="wwrZ0yD_1gh1AcJBncDE-38" vertex="1">
          <mxGeometry x="114" width="56" height="27" as="geometry" />
        </mxCell>
        <mxCell id="wwrZ0yD_1gh1AcJBncDE-42" value="" style="shape=partialRectangle;html=1;whiteSpace=wrap;collapsible=0;dropTarget=0;pointerEvents=0;fillColor=none;top=0;left=0;bottom=0;right=0;points=[[0,0.5],[1,0.5]];portConstraint=eastwest;" parent="wwrZ0yD_1gh1AcJBncDE-37" vertex="1">
          <mxGeometry y="27" width="170" height="26" as="geometry" />
        </mxCell>
        <mxCell id="wwrZ0yD_1gh1AcJBncDE-43" value="" style="shape=partialRectangle;html=1;whiteSpace=wrap;connectable=0;fillColor=none;top=0;left=0;bottom=0;right=0;overflow=hidden;" parent="wwrZ0yD_1gh1AcJBncDE-42" vertex="1">
          <mxGeometry width="56" height="26" as="geometry" />
        </mxCell>
        <mxCell id="wwrZ0yD_1gh1AcJBncDE-44" value="" style="shape=partialRectangle;html=1;whiteSpace=wrap;connectable=0;fillColor=none;top=0;left=0;bottom=0;right=0;overflow=hidden;" parent="wwrZ0yD_1gh1AcJBncDE-42" vertex="1">
          <mxGeometry x="56" width="58" height="26" as="geometry" />
        </mxCell>
        <mxCell id="wwrZ0yD_1gh1AcJBncDE-45" value="" style="shape=partialRectangle;html=1;whiteSpace=wrap;connectable=0;fillColor=none;top=0;left=0;bottom=0;right=0;overflow=hidden;" parent="wwrZ0yD_1gh1AcJBncDE-42" vertex="1">
          <mxGeometry x="114" width="56" height="26" as="geometry" />
        </mxCell>
        <mxCell id="wwrZ0yD_1gh1AcJBncDE-46" value="" style="shape=partialRectangle;html=1;whiteSpace=wrap;collapsible=0;dropTarget=0;pointerEvents=0;fillColor=none;top=0;left=0;bottom=0;right=0;points=[[0,0.5],[1,0.5]];portConstraint=eastwest;" parent="wwrZ0yD_1gh1AcJBncDE-37" vertex="1">
          <mxGeometry y="53" width="170" height="27" as="geometry" />
        </mxCell>
        <mxCell id="wwrZ0yD_1gh1AcJBncDE-47" value="" style="shape=partialRectangle;html=1;whiteSpace=wrap;connectable=0;fillColor=none;top=0;left=0;bottom=0;right=0;overflow=hidden;" parent="wwrZ0yD_1gh1AcJBncDE-46" vertex="1">
          <mxGeometry width="56" height="27" as="geometry" />
        </mxCell>
        <mxCell id="wwrZ0yD_1gh1AcJBncDE-48" value="" style="shape=partialRectangle;html=1;whiteSpace=wrap;connectable=0;fillColor=none;top=0;left=0;bottom=0;right=0;overflow=hidden;" parent="wwrZ0yD_1gh1AcJBncDE-46" vertex="1">
          <mxGeometry x="56" width="58" height="27" as="geometry" />
        </mxCell>
        <mxCell id="wwrZ0yD_1gh1AcJBncDE-49" value="" style="shape=partialRectangle;html=1;whiteSpace=wrap;connectable=0;fillColor=none;top=0;left=0;bottom=0;right=0;overflow=hidden;" parent="wwrZ0yD_1gh1AcJBncDE-46" vertex="1">
          <mxGeometry x="114" width="56" height="27" as="geometry" />
        </mxCell>
        <mxCell id="wwrZ0yD_1gh1AcJBncDE-50" value="&lt;b&gt;UID2 Snowflake Account&lt;/b&gt;" style="text;html=1;strokeColor=none;fillColor=none;align=center;verticalAlign=middle;whiteSpace=wrap;rounded=0;" parent="1" vertex="1">
          <mxGeometry x="550" y="160" width="170" height="20" as="geometry" />
        </mxCell>
        <mxCell id="wwrZ0yD_1gh1AcJBncDE-129" style="rounded=0;orthogonalLoop=1;jettySize=auto;html=1;exitX=1;exitY=0.5;exitDx=0;exitDy=0;edgeStyle=orthogonalEdgeStyle;" parent="1" source="wwrZ0yD_1gh1AcJBncDE-67" edge="1">
          <mxGeometry relative="1" as="geometry">
            <mxPoint x="630" y="250" as="targetPoint" />
            <Array as="points">
              <mxPoint x="630" y="210" />
              <mxPoint x="630" y="248" />
            </Array>
          </mxGeometry>
        </mxCell>
        <mxCell id="wwrZ0yD_1gh1AcJBncDE-67" value="Private&lt;br&gt;functions" style="rounded=1;whiteSpace=wrap;html=1;" parent="1" vertex="1">
          <mxGeometry x="520" y="190" width="92.5" height="40" as="geometry" />
        </mxCell>
        <mxCell id="wwrZ0yD_1gh1AcJBncDE-172" style="rounded=0;orthogonalLoop=1;jettySize=auto;html=1;entryX=0;entryY=0.5;entryDx=0;entryDy=0;entryPerimeter=0;" parent="1" source="wwrZ0yD_1gh1AcJBncDE-68" target="wwrZ0yD_1gh1AcJBncDE-1" edge="1">
          <mxGeometry relative="1" as="geometry" />
        </mxCell>
        <mxCell id="wwrZ0yD_1gh1AcJBncDE-68" value="Background refresh tasks" style="rounded=1;whiteSpace=wrap;html=1;" parent="1" vertex="1">
          <mxGeometry x="672.5" y="190" width="97.5" height="40" as="geometry" />
        </mxCell>
        <mxCell id="wwrZ0yD_1gh1AcJBncDE-122" value="" style="rounded=1;whiteSpace=wrap;html=1;fillColor=#FFFFFF;" parent="1" vertex="1">
          <mxGeometry x="555" y="250" width="175" height="80" as="geometry" />
        </mxCell>
        <mxCell id="wwrZ0yD_1gh1AcJBncDE-95" value="Private Tables" style="shape=table;startSize=30;container=1;collapsible=0;childLayout=tableLayout;fontStyle=1;align=center;rounded=1;fillColor=#FFFFFF;" parent="1" vertex="1">
          <mxGeometry x="555" y="250" width="175" height="80" as="geometry" />
        </mxCell>
        <mxCell id="wwrZ0yD_1gh1AcJBncDE-96" value="" style="shape=partialRectangle;html=1;whiteSpace=wrap;collapsible=0;dropTarget=0;pointerEvents=0;fillColor=none;top=0;left=0;bottom=0;right=0;points=[[0,0.5],[1,0.5]];portConstraint=eastwest;" parent="wwrZ0yD_1gh1AcJBncDE-95" vertex="1">
          <mxGeometry y="30" width="175" height="17" as="geometry" />
        </mxCell>
        <mxCell id="wwrZ0yD_1gh1AcJBncDE-97" value="" style="shape=partialRectangle;html=1;whiteSpace=wrap;connectable=0;fillColor=none;top=0;left=0;bottom=0;right=0;overflow=hidden;" parent="wwrZ0yD_1gh1AcJBncDE-96" vertex="1">
          <mxGeometry width="58" height="17" as="geometry" />
        </mxCell>
        <mxCell id="wwrZ0yD_1gh1AcJBncDE-98" value="" style="shape=partialRectangle;html=1;whiteSpace=wrap;connectable=0;fillColor=none;top=0;left=0;bottom=0;right=0;overflow=hidden;" parent="wwrZ0yD_1gh1AcJBncDE-96" vertex="1">
          <mxGeometry x="58" width="59" height="17" as="geometry" />
        </mxCell>
        <mxCell id="wwrZ0yD_1gh1AcJBncDE-99" value="" style="shape=partialRectangle;html=1;whiteSpace=wrap;connectable=0;fillColor=none;top=0;left=0;bottom=0;right=0;overflow=hidden;" parent="wwrZ0yD_1gh1AcJBncDE-96" vertex="1">
          <mxGeometry x="117" width="58" height="17" as="geometry" />
        </mxCell>
        <mxCell id="wwrZ0yD_1gh1AcJBncDE-100" value="" style="shape=partialRectangle;html=1;whiteSpace=wrap;collapsible=0;dropTarget=0;pointerEvents=0;fillColor=none;top=0;left=0;bottom=0;right=0;points=[[0,0.5],[1,0.5]];portConstraint=eastwest;" parent="wwrZ0yD_1gh1AcJBncDE-95" vertex="1">
          <mxGeometry y="47" width="175" height="16" as="geometry" />
        </mxCell>
        <mxCell id="wwrZ0yD_1gh1AcJBncDE-101" value="" style="shape=partialRectangle;html=1;whiteSpace=wrap;connectable=0;fillColor=none;top=0;left=0;bottom=0;right=0;overflow=hidden;" parent="wwrZ0yD_1gh1AcJBncDE-100" vertex="1">
          <mxGeometry width="58" height="16" as="geometry" />
        </mxCell>
        <mxCell id="wwrZ0yD_1gh1AcJBncDE-102" value="" style="shape=partialRectangle;html=1;whiteSpace=wrap;connectable=0;fillColor=none;top=0;left=0;bottom=0;right=0;overflow=hidden;" parent="wwrZ0yD_1gh1AcJBncDE-100" vertex="1">
          <mxGeometry x="58" width="59" height="16" as="geometry" />
        </mxCell>
        <mxCell id="wwrZ0yD_1gh1AcJBncDE-103" value="" style="shape=partialRectangle;html=1;whiteSpace=wrap;connectable=0;fillColor=none;top=0;left=0;bottom=0;right=0;overflow=hidden;" parent="wwrZ0yD_1gh1AcJBncDE-100" vertex="1">
          <mxGeometry x="117" width="58" height="16" as="geometry" />
        </mxCell>
        <mxCell id="wwrZ0yD_1gh1AcJBncDE-104" value="" style="shape=partialRectangle;html=1;whiteSpace=wrap;collapsible=0;dropTarget=0;pointerEvents=0;fillColor=none;top=0;left=0;bottom=0;right=0;points=[[0,0.5],[1,0.5]];portConstraint=eastwest;" parent="wwrZ0yD_1gh1AcJBncDE-95" vertex="1">
          <mxGeometry y="63" width="175" height="17" as="geometry" />
        </mxCell>
        <mxCell id="wwrZ0yD_1gh1AcJBncDE-105" value="" style="shape=partialRectangle;html=1;whiteSpace=wrap;connectable=0;fillColor=none;top=0;left=0;bottom=0;right=0;overflow=hidden;" parent="wwrZ0yD_1gh1AcJBncDE-104" vertex="1">
          <mxGeometry width="58" height="17" as="geometry" />
        </mxCell>
        <mxCell id="wwrZ0yD_1gh1AcJBncDE-106" value="" style="shape=partialRectangle;html=1;whiteSpace=wrap;connectable=0;fillColor=none;top=0;left=0;bottom=0;right=0;overflow=hidden;" parent="wwrZ0yD_1gh1AcJBncDE-104" vertex="1">
          <mxGeometry x="58" width="59" height="17" as="geometry" />
        </mxCell>
        <mxCell id="wwrZ0yD_1gh1AcJBncDE-107" value="" style="shape=partialRectangle;html=1;whiteSpace=wrap;connectable=0;fillColor=none;top=0;left=0;bottom=0;right=0;overflow=hidden;" parent="wwrZ0yD_1gh1AcJBncDE-104" vertex="1">
          <mxGeometry x="117" width="58" height="17" as="geometry" />
        </mxCell>
        <mxCell id="wwrZ0yD_1gh1AcJBncDE-123" value="" style="rounded=1;whiteSpace=wrap;html=1;fillColor=#dae8fc;strokeColor=#6c8ebf;gradientColor=#D5E8D4;gradientDirection=west;shadow=1;" parent="1" vertex="1">
          <mxGeometry x="360" y="200" width="130" height="90" as="geometry" />
        </mxCell>
        <mxCell id="wwrZ0yD_1gh1AcJBncDE-127" style="rounded=0;orthogonalLoop=1;jettySize=auto;html=1;entryX=0;entryY=0.5;entryDx=0;entryDy=0;" parent="1" target="wwrZ0yD_1gh1AcJBncDE-67" edge="1">
          <mxGeometry relative="1" as="geometry">
            <mxPoint x="470" y="260" as="sourcePoint" />
          </mxGeometry>
        </mxCell>
        <mxCell id="wwrZ0yD_1gh1AcJBncDE-128" style="rounded=0;orthogonalLoop=1;jettySize=auto;html=1;entryX=0;entryY=0.5;entryDx=0;entryDy=0;exitX=1;exitY=0.5;exitDx=0;exitDy=0;" parent="1" source="wwrZ0yD_1gh1AcJBncDE-124" target="wwrZ0yD_1gh1AcJBncDE-42" edge="1">
          <mxGeometry relative="1" as="geometry" />
        </mxCell>
        <mxCell id="wwrZ0yD_1gh1AcJBncDE-124" value="Shared functions and views" style="rounded=1;whiteSpace=wrap;html=1;" parent="1" vertex="1">
          <mxGeometry x="378" y="240" width="95" height="40" as="geometry" />
        </mxCell>
        <mxCell id="wwrZ0yD_1gh1AcJBncDE-125" value="&lt;b&gt;UID2 Share&lt;/b&gt;" style="text;html=1;strokeColor=none;fillColor=none;align=center;verticalAlign=middle;whiteSpace=wrap;rounded=0;" parent="1" vertex="1">
          <mxGeometry x="382.5" y="210" width="90" height="20" as="geometry" />
        </mxCell>
        <mxCell id="wwrZ0yD_1gh1AcJBncDE-126" style="edgeStyle=orthogonalEdgeStyle;curved=1;rounded=0;orthogonalLoop=1;jettySize=auto;html=1;entryX=0;entryY=0.5;entryDx=0;entryDy=0;" parent="1" source="wwrZ0yD_1gh1AcJBncDE-32" target="wwrZ0yD_1gh1AcJBncDE-124" edge="1">
          <mxGeometry relative="1" as="geometry" />
        </mxCell>
        <mxCell id="wwrZ0yD_1gh1AcJBncDE-130" style="rounded=0;orthogonalLoop=1;jettySize=auto;html=1;exitX=0;exitY=0.5;exitDx=0;exitDy=0;entryX=0.56;entryY=-0.01;entryDx=0;entryDy=0;edgeStyle=orthogonalEdgeStyle;entryPerimeter=0;" parent="1" source="wwrZ0yD_1gh1AcJBncDE-68" target="wwrZ0yD_1gh1AcJBncDE-95" edge="1">
          <mxGeometry relative="1" as="geometry">
            <mxPoint x="665" y="230" as="targetPoint" />
          </mxGeometry>
        </mxCell>
        <mxCell id="wwrZ0yD_1gh1AcJBncDE-145" value="&lt;b&gt;UID2 Core / Opt-Out Cloud Setup&lt;/b&gt;" style="text;html=1;strokeColor=none;fillColor=none;align=center;verticalAlign=middle;whiteSpace=wrap;rounded=0;" parent="1" vertex="1">
          <mxGeometry x="930" y="85" width="190" height="20" as="geometry" />
        </mxCell>
        <mxCell id="wwrZ0yD_1gh1AcJBncDE-175" style="rounded=0;orthogonalLoop=1;jettySize=auto;html=1;entryX=0;entryY=0.5;entryDx=0;entryDy=0;entryPerimeter=0;edgeStyle=orthogonalEdgeStyle;" parent="1" source="wwrZ0yD_1gh1AcJBncDE-147" target="wwrZ0yD_1gh1AcJBncDE-168" edge="1">
          <mxGeometry relative="1" as="geometry" />
        </mxCell>
        <mxCell id="wwrZ0yD_1gh1AcJBncDE-147" value="UID2 Core" style="rounded=1;whiteSpace=wrap;html=1;" parent="1" vertex="1">
          <mxGeometry x="892.5" y="270" width="92.5" height="40" as="geometry" />
        </mxCell>
        <mxCell id="wwrZ0yD_1gh1AcJBncDE-176" style="rounded=0;orthogonalLoop=1;jettySize=auto;html=1;entryX=1;entryY=0.5;entryDx=0;entryDy=0;entryPerimeter=0;edgeStyle=orthogonalEdgeStyle;" parent="1" source="wwrZ0yD_1gh1AcJBncDE-148" target="wwrZ0yD_1gh1AcJBncDE-168" edge="1">
          <mxGeometry relative="1" as="geometry" />
        </mxCell>
        <mxCell id="wwrZ0yD_1gh1AcJBncDE-148" value="UID2 Opt-Out" style="rounded=1;whiteSpace=wrap;html=1;" parent="1" vertex="1">
          <mxGeometry x="1045" y="270" width="97.5" height="40" as="geometry" />
        </mxCell>
        <mxCell id="wwrZ0yD_1gh1AcJBncDE-173" style="rounded=0;orthogonalLoop=1;jettySize=auto;html=1;edgeStyle=orthogonalEdgeStyle;" parent="1" source="wwrZ0yD_1gh1AcJBncDE-167" target="wwrZ0yD_1gh1AcJBncDE-1" edge="1">
          <mxGeometry relative="1" as="geometry" />
        </mxCell>
        <mxCell id="wwrZ0yD_1gh1AcJBncDE-174" style="rounded=0;orthogonalLoop=1;jettySize=auto;html=1;entryX=0.5;entryY=0;entryDx=0;entryDy=0;entryPerimeter=0;edgeStyle=orthogonalEdgeStyle;" parent="1" source="wwrZ0yD_1gh1AcJBncDE-167" target="wwrZ0yD_1gh1AcJBncDE-168" edge="1">
          <mxGeometry relative="1" as="geometry">
            <Array as="points">
              <mxPoint x="1094" y="165" />
              <mxPoint x="1015" y="165" />
            </Array>
          </mxGeometry>
        </mxCell>
        <mxCell id="wwrZ0yD_1gh1AcJBncDE-167" value="UID2 Snowflake ETL" style="rounded=1;whiteSpace=wrap;html=1;" parent="1" vertex="1">
          <mxGeometry x="1045" y="115" width="97.5" height="40" as="geometry" />
        </mxCell>
        <mxCell id="wwrZ0yD_1gh1AcJBncDE-168" value="&lt;font style=&quot;font-size: 18px;&quot;&gt;&lt;br&gt;&lt;/font&gt;UID2 Service data" style="strokeWidth=1;html=1;shape=mxgraph.flowchart.database;whiteSpace=wrap;" parent="1" vertex="1">
          <mxGeometry x="985" y="185" width="60" height="80" as="geometry" />
        </mxCell>
        <mxCell id="wwrZ0yD_1gh1AcJBncDE-169" value="" style="rounded=1;whiteSpace=wrap;html=1;fillColor=#e1d5e7;strokeColor=#9673a6;shadow=1;" parent="1" vertex="1">
          <mxGeometry x="850" y="355" width="330" height="90" as="geometry" />
        </mxCell>
        <mxCell id="wwrZ0yD_1gh1AcJBncDE-177" style="rounded=0;orthogonalLoop=1;jettySize=auto;html=1;exitX=0.25;exitY=0;exitDx=0;exitDy=0;" parent="1" source="wwrZ0yD_1gh1AcJBncDE-170" target="wwrZ0yD_1gh1AcJBncDE-147" edge="1">
          <mxGeometry relative="1" as="geometry" />
        </mxCell>
        <mxCell id="wwrZ0yD_1gh1AcJBncDE-178" style="rounded=0;orthogonalLoop=1;jettySize=auto;html=1;exitX=0.75;exitY=0;exitDx=0;exitDy=0;" parent="1" source="wwrZ0yD_1gh1AcJBncDE-170" target="wwrZ0yD_1gh1AcJBncDE-148" edge="1">
          <mxGeometry relative="1" as="geometry" />
        </mxCell>
        <mxCell id="wwrZ0yD_1gh1AcJBncDE-170" value="UID2 Operator" style="rounded=1;whiteSpace=wrap;html=1;" parent="1" vertex="1">
          <mxGeometry x="966.25" y="370" width="97.5" height="40" as="geometry" />
        </mxCell>
        <mxCell id="wwrZ0yD_1gh1AcJBncDE-171" value="&lt;b&gt;UID2 Operator Services Setup&lt;/b&gt;" style="text;html=1;strokeColor=none;fillColor=none;align=center;verticalAlign=middle;whiteSpace=wrap;rounded=0;" parent="1" vertex="1">
          <mxGeometry x="920" y="415" width="190" height="20" as="geometry" />
        </mxCell>
      </root>
    </mxGraphModel>
  </diagram>
</mxfile>
